<?xml version="1.0" encoding="UTF-8" standalone="no"?>
<!-- Created with Inkscape (http://www.inkscape.org/) -->

<svg
   xmlns:dc="http://purl.org/dc/elements/1.1/"
   xmlns:cc="http://creativecommons.org/ns#"
   xmlns:rdf="http://www.w3.org/1999/02/22-rdf-syntax-ns#"
   xmlns:svg="http://www.w3.org/2000/svg"
   xmlns="http://www.w3.org/2000/svg"
   xmlns:xlink="http://www.w3.org/1999/xlink"
   xmlns:sodipodi="http://sodipodi.sourceforge.net/DTD/sodipodi-0.dtd"
   xmlns:inkscape="http://www.inkscape.org/namespaces/inkscape"
   width="820"
   height="820"
   id="svg2"
   version="1.1"
   inkscape:version="0.48.4 r9939"
   sodipodi:docname="tccPackage.svg">
  <sodipodi:namedview
     id="base"
     pagecolor="#ffffff"
     bordercolor="#666666"
     borderopacity="1.0"
     inkscape:pageopacity="0.0"
     inkscape:pageshadow="2"
     inkscape:zoom="0.49497474"
     inkscape:cx="68.29271"
     inkscape:cy="345.30116"
     inkscape:document-units="px"
     inkscape:current-layer="layer1"
     showgrid="false"
     fit-margin-top="10"
     fit-margin-left="10"
     fit-margin-right="10"
     fit-margin-bottom="10"
     inkscape:window-width="1280"
     inkscape:window-height="1000"
     inkscape:window-x="1366"
     inkscape:window-y="24"
     inkscape:window-maximized="1" />
  <defs
     id="defs4">
    <clipPath
       clipPathUnits="userSpaceOnUse"
       id="clipPath3097">
      <path
         inkscape:connector-curvature="0"
         d="m 59.04,73.44 270.72,0 0,227.52 -270.72,0 0,-227.52 z"
         id="path3099" />
    </clipPath>
    <clipPath
       clipPathUnits="userSpaceOnUse"
       id="clipPath3073">
      <path
         inkscape:connector-curvature="0"
         d="m 59.04,73.44 270.72,0 0,227.52 -270.72,0 0,-227.52 z"
         id="path3075" />
    </clipPath>
    <clipPath
       id="clipPath4032"
       clipPathUnits="userSpaceOnUse">
      <rect
         y="-339.63782"
         x="11.428572"
         height="1137.1428"
         width="1091.4286"
         id="rect4034"
         style="fill:#000000;fill-opacity:1;stroke:none" />
    </clipPath>
    <clipPath
       id="clipPath4178"
       clipPathUnits="userSpaceOnUse">
      <rect
         y="29.505039"
         x="97.14286"
         height="760"
         width="1005.7143"
         id="rect4180"
         style="fill:#000000;fill-opacity:1;stroke:none" />
    </clipPath>
    <linearGradient
       id="linearGradient-1"
       y2="158.42992"
       x2="189.13953"
       y1="35.284611"
       x1="78.819672"
       gradientTransform="scale(1.2333188,0.81082038)"
       gradientUnits="userSpaceOnUse">
      <stop
         id="stop3253"
         offset="0%"
         stop-color="#C9CBCE" />
      <stop
         id="stop3255"
         offset="100%"
         stop-color="#7B7A81" />
    </linearGradient>
    <linearGradient
       id="linearGradient3820">
      <stop
         offset="0"
         style="stop-color:#070135;stop-opacity:1"
         id="stop3822" />
      <stop
         offset="1"
         style="stop-color:#612d50;stop-opacity:1"
         id="stop3824" />
    </linearGradient>
    <linearGradient
       gradientTransform="translate(-52,0)"
       gradientUnits="userSpaceOnUse"
       xlink:href="#linearGradient3820"
       id="linearGradient3834"
       y2="432.48389"
       x2="427.37671"
       y1="547.20599"
       x1="314.62408" />
  </defs>
  <metadata
     id="metadata7">
    <rdf:RDF>
      <cc:Work
         rdf:about="">
        <dc:format>image/svg+xml</dc:format>
        <dc:type
           rdf:resource="http://purl.org/dc/dcmitype/StillImage" />
        <dc:title />
      </cc:Work>
    </rdf:RDF>
  </metadata>
  <g
     transform="translate(43.949804,-226.87627)"
     id="layer1"
     inkscape:groupmode="layer"
     inkscape:label="Layer 1">
    <g
       id="g6017"
       transform="matrix(2.20036,0,0,2.20036,-226.21205,-470.51497)">
      <g
         id="g4208"
         transform="matrix(0.26085747,0,0,0.26264008,100.71909,395.66487)">
        <g
           id="g4204">
          <path
             sodipodi:type="arc"
             style="fill:#e6e6e6;fill-opacity:1;stroke:none"
             id="path4184"
             sodipodi:cx="604.28571"
             sodipodi:cy="528.07648"
             sodipodi:rx="592.85712"
             sodipodi:ry="592.85712"
             d="m 1197.1428,528.07648 c 0,327.42594 -265.43115,592.85712 -592.85709,592.85712 -327.42595,0 -592.857121,-265.43118 -592.857121,-592.85712 0,-327.42595 265.431171,-592.85712 592.857121,-592.85712 327.42594,0 592.85709,265.43117 592.85709,592.85712 z"
             transform="matrix(1.0650602,0,0,1.0578313,-46.121939,-148.88236)" />
          <path
             sodipodi:type="arc"
             style="fill:#dbdede;fill-opacity:1;stroke:none"
             id="path4184-1"
             sodipodi:cx="604.28571"
             sodipodi:cy="528.07648"
             sodipodi:rx="592.85712"
             sodipodi:ry="592.85712"
             d="m 1197.1428,528.07648 c 0,327.42594 -265.43115,592.85712 -592.85709,592.85712 -327.42595,0 -592.857121,-265.43118 -592.857121,-592.85712 0,-0.37976 3.65e-4,-0.75951 0.0011,-1.13926"
             transform="matrix(-0.84533527,-0.64789005,0.64349262,-0.8395977,766.2373,1246.2359)"
             sodipodi:start="0"
             sodipodi:end="3.1435143"
             sodipodi:open="true" />
        </g>
        <g
           transform="matrix(0.95946662,0,0,1,24.217832,-50)"
           clip-path="url(#clipPath4178)"
           id="g4156">
          <path
             inkscape:connector-curvature="0"
             d="m 125.63613,797.30105 0,-198.55675"
             style="fill:none;stroke:#ffa300;stroke-width:43.15576172;stroke-linecap:round;stroke-linejoin:round;stroke-miterlimit:10;stroke-opacity:1;stroke-dasharray:none"
             id="path3077" />
          <path
             inkscape:connector-curvature="0"
             d="m 275.27311,797.30105 0,-529.59994"
             style="fill:none;stroke:#ffa300;stroke-width:43.15576172;stroke-linecap:round;stroke-linejoin:round;stroke-miterlimit:10;stroke-opacity:1;stroke-dasharray:none"
             id="path3079" />
          <path
             inkscape:connector-curvature="0"
             d="m 424.91008,796.14946 0,-744.041367"
             style="fill:none;stroke:#ffa300;stroke-width:44.29238129;stroke-linecap:round;stroke-linejoin:round;stroke-miterlimit:10;stroke-opacity:1;stroke-dasharray:none"
             id="path3081" />
          <path
             inkscape:connector-curvature="0"
             d="m 574.54706,796.48965 0,-676.17907"
             style="fill:none;stroke:#ffa300;stroke-width:44.77855682;stroke-linecap:round;stroke-linejoin:round;stroke-miterlimit:10;stroke-opacity:1;stroke-dasharray:none"
             id="path3083" />
          <path
             inkscape:connector-curvature="0"
             d="m 724.22462,797.30105 0,-418.83921"
             style="fill:none;stroke:#ffa300;stroke-width:43.15576172;stroke-linecap:round;stroke-linejoin:round;stroke-miterlimit:10;stroke-opacity:1;stroke-dasharray:none"
             id="path3085" />
          <path
             inkscape:connector-curvature="0"
             d="m 873.8616,799.72734 0,-175.15503"
             style="fill:none;stroke:#ffa300;stroke-width:43.15576172;stroke-linecap:round;stroke-linejoin:round;stroke-miterlimit:10;stroke-opacity:1;stroke-dasharray:none"
             id="path3087" />
          <path
             inkscape:connector-curvature="0"
             d="m 1023.4986,801.01708 0,-66.46213"
             style="fill:none;stroke:#ffa300;stroke-width:43.15576172;stroke-linecap:round;stroke-linejoin:round;stroke-miterlimit:10;stroke-opacity:1;stroke-dasharray:none"
             id="path3089" />
          <path
             inkscape:connector-curvature="0"
             d="m 171.45887,797.30105 0,-387.25915"
             style="fill:none;stroke:#333333;stroke-width:43.15576172;stroke-linecap:round;stroke-linejoin:round;stroke-miterlimit:10;stroke-opacity:1;stroke-dasharray:none"
             id="path3101" />
          <path
             inkscape:connector-curvature="0"
             d="m 321.09584,797.30105 0,-561.55458"
             style="fill:none;stroke:#333333;stroke-width:43.15576172;stroke-linecap:round;stroke-linejoin:round;stroke-miterlimit:10;stroke-opacity:1;stroke-dasharray:none"
             id="path3103" />
          <path
             inkscape:connector-curvature="0"
             d="m 470.73282,797.30105 0,-575.75984"
             style="fill:none;stroke:#333333;stroke-width:43.15576172;stroke-linecap:round;stroke-linejoin:round;stroke-miterlimit:10;stroke-opacity:1;stroke-dasharray:none"
             id="path3105" />
          <path
             inkscape:connector-curvature="0"
             d="m 620.41039,797.30105 0,-481.99934"
             style="fill:none;stroke:#333333;stroke-width:43.15576172;stroke-linecap:round;stroke-linejoin:round;stroke-miterlimit:10;stroke-opacity:1;stroke-dasharray:none"
             id="path3107" />
          <path
             inkscape:connector-curvature="0"
             d="m 770.04737,797.30105 0,-349.45528"
             style="fill:none;stroke:#333333;stroke-width:43.15576172;stroke-linecap:round;stroke-linejoin:round;stroke-miterlimit:10;stroke-opacity:1;stroke-dasharray:none"
             id="path3109" />
          <path
             inkscape:connector-curvature="0"
             d="m 919.68434,797.30105 0,-226.59271"
             style="fill:none;stroke:#333333;stroke-width:43.15576172;stroke-linecap:round;stroke-linejoin:round;stroke-miterlimit:10;stroke-opacity:1;stroke-dasharray:none"
             id="path3111" />
          <path
             inkscape:connector-curvature="0"
             d="m 1069.3213,797.30105 0,-134.15762"
             style="fill:none;stroke:#333333;stroke-width:43.15576172;stroke-linecap:round;stroke-linejoin:round;stroke-miterlimit:10;stroke-opacity:1;stroke-dasharray:none"
             id="path3113" />
        </g>
      </g>
      <g
         transform="translate(5.0507628,4.0406102)"
         id="g6006">
        <path
           sodipodi:type="arc"
           style="fill:#b3b3b3;fill-opacity:1;stroke:none"
           id="path5936"
           sodipodi:cx="-65.714287"
           sodipodi:cy="1325.7142"
           sodipodi:rx="168.57143"
           sodipodi:ry="168.57143"
           d="m 102.85714,1325.7142 c 0,93.0995 -75.471999,168.5715 -168.571427,168.5715 -93.099423,0 -168.571423,-75.472 -168.571423,-168.5715 0,-93.0994 75.472,-168.5714 168.571423,-168.5714 93.099428,0 168.571427,75.472 168.571427,168.5714 z"
           transform="matrix(0.36287504,0,0,0.36287504,405.91194,110.08379)" />
        <g
           id="g5997">
          <g
             style="fill:#ffffff"
             transform="matrix(0.64726846,0,0,0.64726846,115.80532,203.28738)"
             id="g5976">
            <polygon
               transform="matrix(0.28516857,0,0,0.28049819,338.02167,527.28461)"
               points="256,11 58.8,79.3 256,156.9 453.2,79.3 "
               id="polygon5710"
               style="fill:#ffffff;fill-opacity:1" />
            <polygon
               transform="matrix(-0.28516857,0,0,0.28049819,483.36066,527.2009)"
               points="11,414.3 231.5,501 231.5,201.1 11,114.3 "
               id="polygon5708"
               style="fill:#ffffff;fill-opacity:1" />
            <path
               inkscape:connector-curvature="0"
               id="polygon5706"
               d="m 342.49678,643.74989 0,-84.12141 62.87967,24.31916 0,84.14949 z"
               style="fill:#ffffff;fill-opacity:1" />
          </g>
          <g
             id="g3257"
             transform="matrix(0.1216748,9.1199496e-5,1.066013e-4,-0.13759902,418.41328,614.44653)">
            <path
               id="path3259"
               d="M -487.10046,2.0244519 C -544.50598,20.934822 -593.74962,82.081189 -594.30403,136.07988 c -0.55441,53.99866 42.02529,84.75064 99.42981,65.8543 72.51052,-23.86891 106.56719,-78.66646 107.12179,-132.678634 0.5546,-54.012205 -36.01437,-88.094301 -99.34803,-67.2310941 M -512.65101,261.60745 c -74.62125,24.55886 -137.1057,-17.65748 -136.27416,-98.6501 0.78535,-76.49422 64.18679,-160.6707735 138.80941,-185.255638 74.63502,-24.588949 137.57401,13.5003549 136.74209,94.520086 -0.83192,81.019672 -64.64262,164.822362 -139.27734,189.385652"
               inkscape:connector-curvature="0"
               style="fill:#666666" />
            <path
               id="path3261"
               d="m -535.49056,181.95431 c 0,0 2.445,-238.132894 2.445,-238.132894 0,0 45.89983,-15.124272 45.89983,-15.124272 0,0 -0.95089,92.611231 -0.95089,92.611231 11.476,-3.780131 18.27125,-2.102742 26.00124,-26.1451373 11.79371,-34.6529767 26.59265,-83.4827747 26.59265,-83.4827747 0,0 54.51888,-17.964303 54.51888,-17.964303 0,0 -35.33965,99.5551888 -38.25411,104.9105599 -5.3821,10.5651531 -11.56819,12.6027491 -20.22065,19.8479701 17.17033,-1.260205 33.10567,4.652087 38.43958,26.808696 4.65194,20.445338 3.79004,48.68658 -6.8596,70.940564 -9.20838,17.86642 -18.59209,29.83896 -41.54659,37.39602 0,0 -86.06534,28.33434 -86.06534,28.33434 0,0 0,0 0,0 0,0 0,0 0,0 m 46.40889,-64.70838 c 0,0 30.12393,-9.91917 30.12393,-9.91917 7.14378,-2.35229 13.02399,-15.277393 13.13719,-26.301855 0.11321,-11.026151 -5.51151,-20.162618 -12.68436,-17.80037 0,0 -30.12395,9.920778 -30.12395,9.920778 0,0 -0.45281,44.100617 -0.45281,44.100617 0,0 0,0 0,0 0,0 0,0 0,0"
               inkscape:connector-curvature="0"
               style="fill:#2165b6" />
          </g>
        </g>
      </g>
    </g>
  </g>
</svg>
